<?xml version="1.0" standalone="no"?>
<!DOCTYPE svg PUBLIC "-//W3C//DTD SVG 20010904//EN"
 "http://www.w3.org/TR/2001/REC-SVG-20010904/DTD/svg10.dtd">
<svg version="1.0" xmlns="http://www.w3.org/2000/svg"
 width="70.000000pt" height="70.000000pt" viewBox="0 0 70.000000 70.000000"
 preserveAspectRatio="xMidYMid meet">
<metadata>
Created by potrace 1.11, written by Peter Selinger 2001-2013
</metadata>
<g transform="translate(0.000000,70.000000) scale(0.100000,-0.100000)"
fill="#000000" stroke="none">
<path d="M270 689 c0 -5 -4 -7 -10 -4 -28 17 -200 -104 -200 -141 0 -7 -4 -14
-9 -16 -5 -1 -18 -22 -29 -46 -11 -23 -15 -39 -9 -36 8 5 7 2 0 -7 -26 -27 -9
-229 19 -229 4 0 7 -3 6 -8 -4 -20 25 -63 77 -113 30 -29 151 -97 140 -79 -3
6 -1 10 4 10 6 0 11 -5 11 -11 0 -6 33 -9 90 -8 49 1 87 6 84 10 -3 5 3 9 13
9 45 0 136 66 185 133 36 50 58 127 58 205 0 46 -4 71 -10 67 -5 -3 -7 0 -4 9
3 8 -2 28 -11 45 -8 17 -12 31 -8 31 5 0 3 4 -2 8 -6 4 -22 23 -35 42 -14 19
-35 44 -49 55 -37 30 -118 74 -125 68 -3 -4 -6 0 -6 8 0 11 -2 11 -10 -1 -6
-10 -10 -11 -10 -2 0 8 -23 12 -80 12 -50 0 -80 -4 -80 -11z m185 -54 c22 -10
43 -18 46 -17 15 3 107 -96 123 -131 30 -66 38 -144 21 -207 -7 -25 -14 -52
-16 -60 -2 -8 -6 -17 -9 -20 -3 -3 -17 -21 -32 -41 -33 -45 -118 -101 -158
-104 -17 -1 -33 -5 -36 -8 -8 -8 -104 2 -144 15 -42 13 -108 57 -135 90 -30
36 -55 84 -48 92 3 3 1 6 -5 6 -6 0 -11 8 -11 18 0 9 -2 40 -4 67 -7 87 25
168 89 230 46 44 74 68 74 62 0 -2 22 4 50 13 61 21 142 19 195 -5z"/>
<path d="M185 429 c-4 -5 -11 -6 -17 -3 -6 4 -6 0 1 -13 6 -11 8 -23 5 -25 -2
-3 6 -5 18 -5 51 -1 60 -4 93 -39 19 -19 34 -38 33 -42 -6 -38 32 -96 47 -72
9 14 2 80 -8 80 -4 0 -5 4 -2 10 8 14 -64 86 -100 100 -45 17 -64 20 -70 9z"/>
<path d="M460 427 c-52 -16 -84 -49 -75 -77 6 -18 9 -20 16 -9 5 8 9 10 9 5 0
-5 8 0 18 10 9 10 24 21 32 23 30 7 45 9 58 10 18 1 15 38 -4 45 -9 3 -16 6
-17 5 -1 -1 -18 -6 -37 -12z"/>
</g>
</svg>
